<svg width="33" height="46" viewBox="0 0 33 46" fill="none" xmlns="http://www.w3.org/2000/svg">
<path d="M16.9171 1V18" stroke="white" stroke-width="2" stroke-miterlimit="10" stroke-linecap="round" stroke-linejoin="round"/>
<path d="M1.91711 18H31.9171" stroke="white" stroke-width="2" stroke-miterlimit="10" stroke-linecap="round" stroke-linejoin="round"/>
<path d="M16.9171 45C12.9389 45 9.12356 43.4196 6.31051 40.6066C3.49747 37.7936 1.91711 33.9782 1.91711 30V16C1.91711 12.0218 3.49747 8.20644 6.31051 5.3934C9.12356 2.58035 12.9389 1 16.9171 1V1C20.8954 1 24.7107 2.58035 27.5237 5.3934C30.3368 8.20644 31.9171 12.0218 31.9171 16V30C31.9171 33.9782 30.3368 37.7936 27.5237 40.6066C24.7107 43.4196 20.8954 45 16.9171 45Z" stroke="white" stroke-width="2" stroke-miterlimit="10" stroke-linecap="round" stroke-linejoin="round"/>
</svg>
